<?xml version="1.0" encoding="utf-8"?>
<svg version="1.1" id="Layer_1" xmlns="http://www.w3.org/2000/svg" xmlns:xlink="http://www.w3.org/1999/xlink" x="0px" y="0px"
	 viewBox="0 0 298 300" style="enable-background:new 0 0 298 300;" xml:space="preserve">
<style type="text/css">
	.st2{fill:#FFFAF1;}
</style>
<g>
	<path class="st2" d="M296.5,145.5c-17.7-17.7-45.9-18.8-65-3.3l-37.7-37.7c9.1-7.7,20.5-12.6,33.1-13.6c0.6,4.6,2.2,9.1,4.5,13.1
		c3.2,5.5,7.8,10.1,13.3,13.3c5.5,3.2,11.8,4.9,18.2,4.9c6.4,0,12.7-1.7,18.2-4.9c1.3-0.7,2.5-1.5,3.6-2.4h0c0,0,0,0,0,0
		c2.1-1.6,2.6-4.6,1-6.8c-13-17.3-32.8-27.1-54.3-27.1c-18.6,0-35.5,7.6-47.8,19.8c-0.1,0-0.1,0.1-0.2,0.1c0,0-0.1,0.1-0.1,0.2
		c-12.2,12.3-19.8,29.2-19.8,47.8v37.5c-5.9-10.6-9.2-22.4-9.6-34.7c0-0.4,0-0.7,0-1.1c0-0.5,0-1,0-1.5c0,0,0-0.1,0-0.1c0,0,0,0,0,0
		c0,0,0-0.1,0-0.1c0-0.1,0-0.1,0-0.2c0-20.7,8.1-40.1,22.7-54.7l15.3-15.3c25.7-1.1,46.4-22.4,46.4-48.4c0-2.7-2.2-4.8-4.8-4.8
		c-26,0-47.3,20.6-48.4,46.4l-11.8,11.8l-17.5-17.5c7.1-8.6,10.9-19.4,10.9-30.7c0-12.9-5-25.1-14.1-34.2c0,0,0-0.1-0.1-0.1
		c-0.9-1-2.2-1.4-3.4-1.4c-1.2,0-2.5,0.5-3.4,1.4c0,0,0,0.1-0.1,0.1c-9.1,9.1-14.1,21.3-14.1,34.2c0,11.3,3.8,22,10.9,30.7
		l-17.5,17.4L113,72c-1.1-25.7-22.4-46.4-48.4-46.4c-2.7,0-4.8,2.2-4.8,4.8c0,26,20.6,47.3,46.4,48.4l15.2,15.2c0,0,0,0,0,0.1
		c0,0,0,0,0,0c14.6,14.6,22.6,34,22.7,54.6c0,0.1,0,0.1,0,0.2c0,0,0,0.1,0,0.1c0,0,0,0,0,0c0,0,0,0.1,0,0.1c0,0.6,0,1.1,0,1.7
		c0,0.3,0,0.6,0,0.9c-0.4,12.3-3.8,24.2-9.7,34.7V149c0-18.6-7.6-35.5-19.8-47.8c0-0.1-0.1-0.1-0.1-0.2c-0.1-0.1-0.1-0.1-0.2-0.1
		c-12.3-12.2-29.2-19.8-47.8-19.8c-21.6,0-41.3,9.9-54.3,27.1c-1.6,2.1-1.2,5.2,1,6.8h0l0,0c1.1,0.9,2.4,1.7,3.6,2.4
		c5.5,3.2,11.8,4.9,18.2,4.9c6.4,0,12.7-1.7,18.2-4.9c5.5-3.2,10.1-7.8,13.3-13.3c2.3-4,3.8-8.5,4.5-13.1c12.5,1,24,5.9,33.1,13.6
		l-37.7,37.7c-19-15.6-47.2-14.5-65,3.3c-1.9,1.9-1.9,5,0,6.9c9.1,9.1,21.3,14.2,34.3,14.2c13,0,25.1-5,34.3-14.2c0,0,0,0,0,0
		L80.3,142c-0.3,2.3-0.5,4.6-0.5,6.9c0,13,5,25.1,14.2,34.3c0.9,0.9,2.2,1.4,3.4,1.4c1.2,0,2.5-0.5,3.4-1.4
		c9.1-9.1,14.2-21.3,14.2-34.3c0-11.3-3.8-22.1-10.9-30.7l6.8-6.8c8.6,10.1,13.8,23.2,13.8,37.5c0,32.1-26.1,58.2-58.2,58.2
		c-2.7,0-4.8,2.2-4.8,4.8s2.2,4.8,4.8,4.8c24.7,0,46.3-13.3,58.2-33.1v16.4v0.3c-1.1,1.2-2.2,2.4-3.3,3.5c-7.4,7.4-16,13.1-25.7,17
		c-2.5,1-3.7,3.8-2.7,6.3c0.8,1.9,2.6,3,4.5,3c0.6,0,1.2-0.1,1.8-0.4c9.3-3.8,17.8-9.1,25.3-15.8v22.5v7.4c0,5.4-1.4,10.7-4.1,15.3
		c-2.7,4.7-6.6,8.6-11.3,11.3c-9.3,5.4-21.4,5.4-30.7,0c-2.3-1.3-5.3-0.6-6.6,1.8c-1.3,2.3-0.5,5.3,1.8,6.6
		c6.1,3.5,13.1,5.4,20.2,5.4c7.1,0,14.1-1.9,20.2-5.4c6.1-3.5,11.2-8.7,14.8-14.8c3.5-6.1,5.4-13.1,5.4-20.2V204
		c3.8-4.6,7-9.6,9.7-14.9v106c0,2.7,2.2,4.8,4.8,4.8s4.8-2.2,4.8-4.8v-106c2.7,5.3,6,10.2,9.7,14.9v40.1c0,7.1,1.9,14.1,5.4,20.2
		c3.5,6.1,8.7,11.3,14.8,14.8c6.1,3.5,13.1,5.4,20.2,5.4c7.1,0,14.1-1.9,20.2-5.4c2.3-1.3,3.1-4.3,1.8-6.6c-1.3-2.3-4.3-3.1-6.6-1.8
		c-9.3,5.4-21.4,5.4-30.7,0c-4.7-2.7-8.6-6.6-11.3-11.3c-2.7-4.6-4.1-9.9-4.1-15.3v-7.4v-22.5c7.5,6.7,16,12.1,25.3,15.8
		c0.6,0.2,1.2,0.4,1.8,0.4c1.9,0,3.7-1.1,4.5-3c1-2.5-0.2-5.3-2.7-6.3c-9.6-3.9-18.3-9.6-25.7-17c-1.2-1.2-2.2-2.3-3.3-3.6v-0.3
		v-16.4c11.9,19.8,33.5,33.1,58.2,33.1c2.7,0,4.8-2.2,4.8-4.8s-2.2-4.8-4.8-4.8c-32.1,0-58.2-26.1-58.2-58.2
		c0-14.3,5.2-27.4,13.8-37.5l6.8,6.8c-7.1,8.6-10.9,19.4-10.9,30.7c0,13,5,25.1,14.2,34.3c0.9,0.9,2.2,1.4,3.4,1.4s2.5-0.5,3.4-1.4
		c11.2-11.2,15.7-26.6,13.6-41.2l10.4,10.4c9.1,9.1,21.3,14.2,34.3,14.2c13,0,25.1-5,34.3-14.2c0.9-0.9,1.4-2.2,1.4-3.4
		S297.5,146.5,296.5,145.5z M274.5,109.9c-7.8,3.7-17.4,3.5-24.9-0.9c-4.1-2.3-7.4-5.7-9.8-9.8c-1.5-2.5-2.4-5.3-3-8.2
		C251.4,92.4,264.7,99,274.5,109.9z M228.1,35.7c-2.3,17.2-16,30.8-33.1,33.1C197.3,51.7,210.9,38.1,228.1,35.7z M69.9,35.7
		c17.2,2.3,30.8,16,33.1,33.1C85.8,66.5,72.2,52.9,69.9,35.7z M58.1,99.3c-2.3,4-5.7,7.4-9.8,9.8c-7.5,4.3-17.1,4.6-24.9,0.9
		C33.3,99,46.6,92.4,61.2,91.1C60.6,93.9,59.6,96.7,58.1,99.3z M35.7,156.9c-8.6,0-16.7-2.8-23.4-7.9c13.8-10.5,33.1-10.5,46.9,0
		C52.4,154.1,44.3,156.9,35.7,156.9z M105.3,149c0,8.6-2.8,16.7-7.9,23.4c-5.1-6.7-7.9-14.8-7.9-23.4c0-8.6,2.8-16.7,7.9-23.4
		C102.5,132.2,105.3,140.4,105.3,149z M141.1,35.7c0-8.6,2.8-16.7,7.9-23.4c5.1,6.7,7.9,14.8,7.9,23.4c0,8.6-2.8,16.7-7.9,23.4
		C143.9,52.4,141.1,44.3,141.1,35.7z M131.6,90.8L149,73.4l17.4,17.4c-7.8,8.7-13.6,18.6-17.4,29.4
		C145.2,109.4,139.4,99.4,131.6,90.8z M200.6,172.4c-5.1-6.7-7.9-14.8-7.9-23.4c0-8.6,2.8-16.7,7.9-23.4
		C211.1,139.3,211.1,158.6,200.6,172.4z M262.3,156.9c-8.6,0-16.7-2.8-23.4-7.9c13.8-10.5,33.1-10.5,46.9,0
		C279,154.1,270.9,156.9,262.3,156.9z"/>
</g>
</svg>
