<?xml version="1.0" encoding="utf-8"?>
<svg version="1.1" id="Layer_1" xmlns="http://www.w3.org/2000/svg" xmlns:xlink="http://www.w3.org/1999/xlink" x="0px" y="0px"
	 viewBox="0 0 453.8 338.6" style="enable-background:new 0 0 453.8 338.6;" xml:space="preserve">
<style type="text/css">
	.st0{fill:#3C3C3C;}
	.st1{fill:#009788;}
	.st2{fill:#143333;}
	.st3{fill:#FFFFFF;}
</style>
<g>
	<g>
		<path class="st2" d="M63,240c0,17.9-13.1,31.1-31.5,31.1C13,271.1,0,257.9,0,240s13-31.1,31.5-31.1C50,208.9,63,222.1,63,240z
			 M12.5,240c0,11.7,8,19.6,19,19.6c11.1,0,19-8,19-19.6s-8-19.6-19-19.6C20.5,220.4,12.5,228.3,12.5,240z"/>
		<path class="st2" d="M100.4,210c14.3,0,22,6.8,22,18.3c0,9.9-6.9,16.6-18.4,17.7l18.5,24H108l-17.5-23.9H87V270H75v-60H100.4z
			 M87,221v14.7h13.2c6.5,0,9.9-2.4,9.9-7.5c0-5-3.6-7.2-9.9-7.2H87z"/>
		<path class="st2" d="M189.5,222.3l-10.3,6.3c-3.4-5.2-8.8-8.3-15.5-8.3c-10.9,0-18.9,8-18.9,19.6c0,12,8.4,19.6,18.9,19.6
			c6.6,0,12-3,15.6-8.2l9.8,7c-5.3,7.8-14.4,12.7-25.3,12.7c-18.5,0-31.5-13.1-31.5-31.1c0-18,13-31.1,31.5-31.1
			C174.9,208.9,184.6,213.9,189.5,222.3z"/>
		<path class="st2" d="M212.4,234.2h28.9V210h12v60h-12v-24.7h-28.9V270h-12v-60h12V234.2z"/>
		<path class="st2" d="M326.5,270h-12.8l-5.2-14h-25.6l-5.2,14h-12.5l23.4-60h14.6L326.5,270z M287.1,245h17.4l-8.7-23.2L287.1,245z
			"/>
		<path class="st2" d="M363.9,210c14.3,0,22,6.8,22,18.3c0,9.9-6.9,16.6-18.4,17.7l18.5,24h-14.5L354,246.1h-3.5V270h-12v-60H363.9z
			 M350.4,221v14.7h13.2c6.5,0,9.9-2.4,9.9-7.5c0-5-3.6-7.2-9.9-7.2H350.4z"/>
		<path class="st2" d="M422.6,210c18.8,0,31.2,11.9,31.2,30s-12.4,30-31.2,30h-24.7v-60H422.6z M409.8,221.2v37.6h12.6
			c12.6,0,18.8-7.9,18.8-18.8c0-11-6.1-18.8-18.8-18.8H409.8z"/>
	</g>
	<path class="st2" d="M315.4,87.3c-10.6-10.6-27.6-11.3-39-2l-22.6-22.6c5.4-4.6,12.3-7.6,19.8-8.1c0.4,2.8,1.3,5.4,2.7,7.9
		c1.9,3.3,4.7,6.1,8,8c3.3,1.9,7.1,2.9,10.9,2.9c3.8,0,7.6-1,10.9-2.9c0.8-0.4,1.5-0.9,2.2-1.4h0c0,0,0,0,0,0c1.3-1,1.5-2.8,0.6-4.1
		c-7.8-10.4-19.7-16.3-32.6-16.3c-11.2,0-21.3,4.5-28.7,11.9c0,0-0.1,0-0.1,0.1c0,0,0,0.1-0.1,0.1c-7.3,7.4-11.9,17.5-11.9,28.7
		v22.5c-3.5-6.3-5.5-13.4-5.8-20.8c0-0.2,0-0.4,0-0.7c0-0.3,0-0.6,0-0.9c0,0,0,0,0-0.1c0,0,0,0,0,0c0,0,0-0.1,0-0.1c0,0,0-0.1,0-0.1
		c0-12.4,4.9-24,13.6-32.8l9.2-9.2c15.4-0.7,27.8-13.4,27.8-29c0-1.6-1.3-2.9-2.9-2.9c-15.6,0-28.4,12.4-29,27.8l-7.1,7.1
		l-10.5-10.5c4.2-5.2,6.5-11.6,6.5-18.4c0-7.8-3-15-8.5-20.5c0,0,0,0,0,0c-0.6-0.6-1.3-0.9-2.1-0.9c-0.7,0-1.5,0.3-2.1,0.9
		c0,0,0,0,0,0c-5.5,5.5-8.5,12.8-8.5,20.5c0,6.8,2.3,13.2,6.5,18.4l-10.5,10.5l-7.1-7.1c-0.7-15.4-13.4-27.8-29-27.8
		c-1.6,0-2.9,1.3-2.9,2.9c0,15.6,12.4,28.4,27.8,29l9.1,9.1c0,0,0,0,0,0c0,0,0,0,0,0c8.8,8.8,13.6,20.4,13.6,32.8c0,0,0,0.1,0,0.1
		c0,0,0,0.1,0,0.1c0,0,0,0,0,0c0,0,0,0.1,0,0.1c0,0.3,0,0.7,0,1c0,0.2,0,0.3,0,0.5c-0.3,7.4-2.3,14.5-5.8,20.8V89.4
		c0-11.2-4.5-21.3-11.9-28.7c0,0,0-0.1-0.1-0.1c0,0-0.1,0-0.1-0.1c-7.4-7.3-17.5-11.9-28.7-11.9c-12.9,0-24.8,5.9-32.6,16.3
		c-1,1.3-0.7,3.1,0.6,4.1h0l0,0c0.7,0.5,1.4,1,2.2,1.4c3.3,1.9,7.1,2.9,10.9,2.9c3.8,0,7.6-1,10.9-2.9c3.3-1.9,6.1-4.7,8-8
		c1.4-2.4,2.3-5.1,2.7-7.9c7.5,0.6,14.4,3.5,19.8,8.1l-22.6,22.6c-11.4-9.3-28.3-8.7-39,2c-1.1,1.1-1.1,3,0,4.1
		c5.5,5.5,12.8,8.5,20.6,8.5c7.8,0,15.1-3,20.6-8.5c0,0,0,0,0,0l6.2-6.2c-0.2,1.4-0.3,2.8-0.3,4.2c0,7.8,3,15.1,8.5,20.6
		c0.6,0.6,1.3,0.9,2.1,0.9c0.7,0,1.5-0.3,2.1-0.9c5.5-5.5,8.5-12.8,8.5-20.6c0-6.8-2.3-13.2-6.6-18.4l4.1-4.1
		c5.2,6.1,8.3,13.9,8.3,22.5c0,19.2-15.7,34.9-34.9,34.9c-1.6,0-2.9,1.3-2.9,2.9s1.3,2.9,2.9,2.9c14.8,0,27.8-8,34.9-19.9v9.9v0.2
		c-0.6,0.7-1.3,1.4-2,2.1c-4.4,4.4-9.6,7.9-15.4,10.2c-1.5,0.6-2.2,2.3-1.6,3.8c0.5,1.1,1.5,1.8,2.7,1.8c0.4,0,0.7-0.1,1.1-0.2
		c5.6-2.3,10.7-5.5,15.2-9.5V142v4.5c0,3.2-0.9,6.4-2.5,9.2c-1.6,2.8-4,5.1-6.8,6.8c-5.6,3.2-12.9,3.2-18.4,0
		c-1.4-0.8-3.2-0.3-4,1.1c-0.8,1.4-0.3,3.2,1.1,4c3.7,2.1,7.9,3.2,12.1,3.2c4.3,0,8.5-1.1,12.1-3.2c3.7-2.1,6.7-5.2,8.9-8.9
		c2.1-3.7,3.2-7.9,3.2-12.1v-24.1c2.3-2.8,4.2-5.8,5.8-8.9v63.6c0,1.6,1.3,2.9,2.9,2.9s2.9-1.3,2.9-2.9v-63.6
		c1.6,3.2,3.6,6.1,5.8,8.9v24.1c0,4.3,1.1,8.4,3.2,12.1c2.1,3.7,5.2,6.8,8.9,8.9c3.7,2.1,7.9,3.2,12.1,3.2c4.3,0,8.5-1.1,12.1-3.2
		c1.4-0.8,1.9-2.6,1.1-4c-0.8-1.4-2.6-1.9-4-1.1c-5.6,3.2-12.9,3.2-18.4,0c-2.8-1.6-5.1-4-6.8-6.8c-1.6-2.8-2.5-6-2.5-9.2V142v-13.5
		c4.5,4,9.6,7.2,15.2,9.5c0.4,0.1,0.7,0.2,1.1,0.2c1.1,0,2.2-0.7,2.7-1.8c0.6-1.5-0.1-3.2-1.6-3.8c-5.8-2.3-11-5.8-15.4-10.2
		c-0.7-0.7-1.3-1.4-2-2.1v-0.2v-9.9c7.1,11.9,20.1,19.9,34.9,19.9c1.6,0,2.9-1.3,2.9-2.9s-1.3-2.9-2.9-2.9
		c-19.2,0-34.9-15.7-34.9-34.9c0-8.6,3.1-16.4,8.3-22.5l4.1,4.1c-4.2,5.2-6.6,11.6-6.6,18.4c0,7.8,3,15.1,8.5,20.6
		c0.6,0.6,1.3,0.9,2.1,0.9c0.7,0,1.5-0.3,2.1-0.9c6.7-6.7,9.4-16,8.2-24.7l6.2,6.2c5.5,5.5,12.8,8.5,20.6,8.5c7.8,0,15.1-3,20.6-8.5
		c0.6-0.6,0.9-1.3,0.9-2.1S316,87.9,315.4,87.3z M302.2,65.9c-4.7,2.2-10.4,2.1-14.9-0.5c-2.4-1.4-4.5-3.4-5.9-5.9
		c-0.9-1.5-1.5-3.2-1.8-4.9C288.3,55.4,296.3,59.4,302.2,65.9z M274.4,21.4c-1.4,10.3-9.6,18.5-19.9,19.9
		C255.9,31,264,22.8,274.4,21.4z M179.4,21.4c10.3,1.4,18.5,9.6,19.9,19.9C189,39.9,180.8,31.7,179.4,21.4z M172.4,59.6
		c-1.4,2.4-3.4,4.5-5.9,5.9c-4.5,2.6-10.3,2.8-14.9,0.5c5.9-6.5,13.9-10.5,22.6-11.3C173.8,56.4,173.3,58,172.4,59.6z M158.9,94.1
		c-5.2,0-10-1.7-14.1-4.7c8.3-6.3,19.8-6.3,28.1,0C169,92.4,164.1,94.1,158.9,94.1z M200.7,89.4c0,5.2-1.7,10-4.7,14.1
		c-3.1-4-4.7-8.9-4.7-14.1c0-5.2,1.7-10,4.7-14.1C199,79.3,200.7,84.2,200.7,89.4z M222.1,21.4c0-5.2,1.7-10,4.7-14.1
		c3.1,4,4.7,8.9,4.7,14.1c0,5.2-1.7,10-4.7,14.1C223.8,31.5,222.1,26.6,222.1,21.4z M216.5,54.5L226.9,44l10.4,10.4
		c-4.7,5.2-8.2,11.2-10.4,17.6C224.6,65.6,221.1,59.7,216.5,54.5z M257.8,103.4c-3.1-4-4.7-8.9-4.7-14.1c0-5.2,1.7-10,4.7-14.1
		C264.1,83.6,264.1,95.2,257.8,103.4z M294.8,94.1c-5.2,0-10-1.7-14.1-4.7c8.3-6.3,19.8-6.3,28.1,0C304.9,92.4,300,94.1,294.8,94.1z
		"/>
	<g>
		<path class="st2" d="M116.6,305.6h-9.3v14V330h-6v-24.4H92V300h24.6V305.6z"/>
		<path class="st2" d="M138.3,330h-5.5v-2.3c-1.4,1.7-3.4,2.8-6.2,2.8c-5.7,0-10.1-4.7-10.1-10.9c0-6.2,4.3-10.9,10.1-10.9
			c2.8,0,4.8,1.2,6.2,2.8v-2.3h5.5V330z M122.3,319.6c0,3.2,2.1,5.7,5.4,5.7c3.2,0,5.4-2.4,5.4-5.7c0-3.3-2.2-5.7-5.4-5.7
			C124.4,313.9,122.3,316.4,122.3,319.6z"/>
		<path class="st2" d="M149.5,330h-5.6v-30h5.6V330z"/>
		<path class="st2" d="M175,319.6c0,0.6,0,1.4-0.1,1.9h-14.7c0.6,3,2.7,4.3,5.3,4.3c1.8,0,3.7-0.7,5.2-2l3.3,3.6
			c-2.4,2.2-5.4,3.2-8.9,3.2c-6.4,0-10.8-4.3-10.8-10.9c0-6.5,4.3-11,10.5-11C170.8,308.7,174.9,313.1,175,319.6z M160.1,317.7h9.2
			c-0.5-2.7-2.1-4.2-4.5-4.2C162.2,313.5,160.6,315.1,160.1,317.7z"/>
		<path class="st2" d="M199.5,316.8V330h-5.6v-11.4c0-3-1.5-4.7-4.1-4.7c-2.4,0-4.4,1.6-4.4,4.7V330h-5.6v-20.8h5.4v2.4
			c1.5-2.2,3.8-3,6.1-3c3.8,0,6.8,2.2,7.7,5.5C199.4,315,199.5,315.9,199.5,316.8z"/>
		<path class="st2" d="M220.4,314.2h-7.5v7.6c0,2.6,1.4,3.5,3.1,3.5c1.3,0,2.8-0.7,3.9-1.4l2.1,4.4c-1.8,1.2-3.9,2.2-6.9,2.2
			c-5.1,0-7.8-2.9-7.8-8.3v-8h-4v-5h4v-6.2h5.6v6.2h7.5V314.2z"/>
		<path class="st2" d="M263,304l-4.3,4.2c-1.7-2-4.2-3.2-7.2-3.2c-5.5,0-9.5,4-9.5,9.9c0,6.1,4.2,10,9.4,10c4.9,0,7.7-2.4,8.5-6.6
			h-7.6v-5h13.8c0.1,0.6,0.1,1.1,0.1,1.7c0,9.1-6.1,15.5-14.7,15.5c-8.3,0-15.7-5.9-15.7-15.5c0-9.1,6.6-15.6,15.8-15.6
			C256.4,299.4,260.4,301.2,263,304z"/>
		<path class="st2" d="M285.2,309.1l-0.8,5.5c-0.9-0.4-2.3-0.7-3.4-0.7c-2.6,0-4.4,1.6-4.4,4.7V330H271v-20.8h5.4v2.3
			c1.3-2,3.3-2.8,5.9-2.8C283.5,308.7,284.5,308.8,285.2,309.1z"/>
		<path class="st2" d="M309.9,319.6c0,6.3-4.8,10.9-11.2,10.9c-6.5,0-11.2-4.7-11.2-10.9c0-6.3,4.8-10.9,11.2-10.9
			C305.2,308.7,309.9,313.3,309.9,319.6z M293.2,319.6c0,3.4,2.4,5.7,5.5,5.7c3.1,0,5.5-2.4,5.5-5.7c0-3.4-2.4-5.7-5.5-5.7
			C295.5,313.9,293.2,316.2,293.2,319.6z"/>
		<path class="st2" d="M334.5,321.1c0,6.6-4.6,9.4-9.8,9.4c-5.2,0-9.8-2.8-9.8-9.4v-11.9h5.6v11.4c0,3.3,1.8,4.7,4.2,4.7
			c2.4,0,4.2-1.4,4.2-4.7v-11.4h5.6V321.1z"/>
		<path class="st2" d="M361.8,319.6c0,6.2-4.3,10.9-10.1,10.9c-2.8,0-4.8-1.1-6.1-2.7v10.7h-5.6v-29.3h5.5v2.3
			c1.4-1.7,3.3-2.8,6.2-2.8C357.5,308.7,361.8,313.4,361.8,319.6z M345.4,319.6c0,3.3,2.2,5.7,5.3,5.7c3.3,0,5.4-2.5,5.4-5.7
			s-2.1-5.7-5.4-5.7C347.5,313.9,345.4,316.3,345.4,319.6z"/>
	</g>
</g>
</svg>
